<mxfile host="app.diagrams.net" modified="2024-03-26T11:00:38.647Z" agent="Mozilla/5.0 (Macintosh; Intel Mac OS X 10_15_7) AppleWebKit/537.36 (KHTML, like Gecko) Chrome/123.0.0.0 Safari/537.36" etag="rgsXYVnpLq3SVTmYtRx_" version="21.7.5" type="github">
  <diagram name="第 1 页" id="kDbhrfnu1pno20YqwbSC">
    <mxGraphModel dx="984" dy="1797" grid="1" gridSize="10" guides="1" tooltips="1" connect="1" arrows="1" fold="1" page="1" pageScale="1" pageWidth="827" pageHeight="1169" math="0" shadow="0">
      <root>
        <mxCell id="0" />
        <mxCell id="1" parent="0" />
        <mxCell id="1hjAV1QJ5oIMdUX9Ri_a-22" style="edgeStyle=orthogonalEdgeStyle;rounded=0;orthogonalLoop=1;jettySize=auto;html=1;entryX=0.5;entryY=0;entryDx=0;entryDy=0;" edge="1" parent="1" source="VpYnPdU7izVROzX6TR5v-1" target="1hjAV1QJ5oIMdUX9Ri_a-8">
          <mxGeometry relative="1" as="geometry" />
        </mxCell>
        <mxCell id="VpYnPdU7izVROzX6TR5v-1" value="网关(gateway)" style="rounded=1;whiteSpace=wrap;html=1;fillColor=#e51400;fontColor=#ffffff;strokeColor=#B20000;" parent="1" vertex="1">
          <mxGeometry x="380" y="230" width="110" height="50" as="geometry" />
        </mxCell>
        <mxCell id="1hjAV1QJ5oIMdUX9Ri_a-21" style="edgeStyle=orthogonalEdgeStyle;rounded=0;orthogonalLoop=1;jettySize=auto;html=1;entryX=0.5;entryY=0;entryDx=0;entryDy=0;" edge="1" parent="1" source="VpYnPdU7izVROzX6TR5v-4" target="VpYnPdU7izVROzX6TR5v-1">
          <mxGeometry relative="1" as="geometry" />
        </mxCell>
        <mxCell id="VpYnPdU7izVROzX6TR5v-4" value="" style="swimlane;startSize=0;" parent="1" vertex="1">
          <mxGeometry x="140" y="90" width="590" height="90" as="geometry">
            <mxRectangle x="330" y="90" width="50" height="40" as="alternateBounds" />
          </mxGeometry>
        </mxCell>
        <mxCell id="VpYnPdU7izVROzX6TR5v-2" value="服务门户" style="rounded=1;whiteSpace=wrap;html=1;" parent="VpYnPdU7izVROzX6TR5v-4" vertex="1">
          <mxGeometry x="30" y="20" width="90" height="50" as="geometry" />
        </mxCell>
        <mxCell id="VpYnPdU7izVROzX6TR5v-8" value="门户触点" style="rounded=1;whiteSpace=wrap;html=1;" parent="VpYnPdU7izVROzX6TR5v-4" vertex="1">
          <mxGeometry x="140" y="20" width="90" height="50" as="geometry" />
        </mxCell>
        <mxCell id="VpYnPdU7izVROzX6TR5v-9" value="F9" style="rounded=1;whiteSpace=wrap;html=1;" parent="VpYnPdU7izVROzX6TR5v-4" vertex="1">
          <mxGeometry x="250" y="20" width="90" height="50" as="geometry" />
        </mxCell>
        <mxCell id="VpYnPdU7izVROzX6TR5v-12" value="device-agent" style="rounded=1;whiteSpace=wrap;html=1;" parent="VpYnPdU7izVROzX6TR5v-4" vertex="1">
          <mxGeometry x="360" y="20" width="90" height="50" as="geometry" />
        </mxCell>
        <mxCell id="VpYnPdU7izVROzX6TR5v-13" value="client-agent" style="rounded=1;whiteSpace=wrap;html=1;" parent="VpYnPdU7izVROzX6TR5v-4" vertex="1">
          <mxGeometry x="480" y="20" width="90" height="50" as="geometry" />
        </mxCell>
        <mxCell id="VpYnPdU7izVROzX6TR5v-11" style="edgeStyle=orthogonalEdgeStyle;rounded=0;orthogonalLoop=1;jettySize=auto;html=1;" parent="1" source="VpYnPdU7izVROzX6TR5v-5" target="VpYnPdU7izVROzX6TR5v-4" edge="1">
          <mxGeometry relative="1" as="geometry" />
        </mxCell>
        <mxCell id="VpYnPdU7izVROzX6TR5v-5" value="&lt;b&gt;&lt;font style=&quot;font-size: 14px;&quot;&gt;客户端&lt;/font&gt;&lt;/b&gt;" style="text;html=1;align=center;verticalAlign=middle;resizable=0;points=[];autosize=1;strokeColor=none;fillColor=none;" parent="1" vertex="1">
          <mxGeometry x="55" y="120" width="70" height="30" as="geometry" />
        </mxCell>
        <mxCell id="1hjAV1QJ5oIMdUX9Ri_a-2" value="" style="swimlane;startSize=0;" vertex="1" parent="1">
          <mxGeometry x="660" y="335" width="135" height="370" as="geometry" />
        </mxCell>
        <mxCell id="1hjAV1QJ5oIMdUX9Ri_a-3" value="服务治理&amp;amp;配置管理(nacos)" style="rounded=1;whiteSpace=wrap;html=1;" vertex="1" parent="1hjAV1QJ5oIMdUX9Ri_a-2">
          <mxGeometry x="10" y="10" width="110" height="50" as="geometry" />
        </mxCell>
        <mxCell id="1hjAV1QJ5oIMdUX9Ri_a-4" value="分布式任务调度(xxljob)" style="rounded=1;whiteSpace=wrap;html=1;" vertex="1" parent="1hjAV1QJ5oIMdUX9Ri_a-2">
          <mxGeometry x="10" y="70" width="110" height="50" as="geometry" />
        </mxCell>
        <mxCell id="1hjAV1QJ5oIMdUX9Ri_a-5" value="分布式缓存(redis)" style="rounded=1;whiteSpace=wrap;html=1;" vertex="1" parent="1hjAV1QJ5oIMdUX9Ri_a-2">
          <mxGeometry x="10" y="130" width="110" height="50" as="geometry" />
        </mxCell>
        <mxCell id="1hjAV1QJ5oIMdUX9Ri_a-6" value="分布式消息队列(rabbitmq)" style="rounded=1;whiteSpace=wrap;html=1;" vertex="1" parent="1hjAV1QJ5oIMdUX9Ri_a-2">
          <mxGeometry x="10" y="190" width="110" height="50" as="geometry" />
        </mxCell>
        <mxCell id="1hjAV1QJ5oIMdUX9Ri_a-7" value="分布式文件存储服务(minio)" style="rounded=1;whiteSpace=wrap;html=1;" vertex="1" parent="1hjAV1QJ5oIMdUX9Ri_a-2">
          <mxGeometry x="10" y="250" width="110" height="50" as="geometry" />
        </mxCell>
        <mxCell id="1hjAV1QJ5oIMdUX9Ri_a-20" value="中级服务器(repeater)" style="rounded=1;whiteSpace=wrap;html=1;" vertex="1" parent="1hjAV1QJ5oIMdUX9Ri_a-2">
          <mxGeometry x="10" y="310" width="110" height="50" as="geometry" />
        </mxCell>
        <mxCell id="1hjAV1QJ5oIMdUX9Ri_a-8" value="" style="swimlane;startSize=0;" vertex="1" parent="1">
          <mxGeometry x="140" y="335" width="490" height="425" as="geometry" />
        </mxCell>
        <mxCell id="1hjAV1QJ5oIMdUX9Ri_a-12" value="单点登录(cas)" style="rounded=1;whiteSpace=wrap;html=1;fillColor=#e51400;fontColor=#ffffff;strokeColor=#B20000;" vertex="1" parent="1hjAV1QJ5oIMdUX9Ri_a-8">
          <mxGeometry x="10" y="15" width="110" height="50" as="geometry" />
        </mxCell>
        <mxCell id="1hjAV1QJ5oIMdUX9Ri_a-13" value="&lt;font color=&quot;#0000cc&quot;&gt;门户（sp）&lt;/font&gt;" style="rounded=1;whiteSpace=wrap;html=1;fillColor=#f0a30a;fontColor=#000000;strokeColor=#BD7000;" vertex="1" parent="1hjAV1QJ5oIMdUX9Ri_a-8">
          <mxGeometry x="130" y="15" width="110" height="50" as="geometry" />
        </mxCell>
        <mxCell id="1hjAV1QJ5oIMdUX9Ri_a-14" value="资产(asset)" style="rounded=1;whiteSpace=wrap;html=1;fillColor=#0050ef;fontColor=#ffffff;strokeColor=#001DBC;" vertex="1" parent="1hjAV1QJ5oIMdUX9Ri_a-8">
          <mxGeometry x="10" y="295" width="110" height="50" as="geometry" />
        </mxCell>
        <mxCell id="1hjAV1QJ5oIMdUX9Ri_a-15" value="一件帮助管理(helpermgt)" style="rounded=1;whiteSpace=wrap;html=1;fillColor=#0050ef;fontColor=#ffffff;strokeColor=#001DBC;" vertex="1" parent="1hjAV1QJ5oIMdUX9Ri_a-8">
          <mxGeometry x="10" y="155" width="110" height="50" as="geometry" />
        </mxCell>
        <mxCell id="1hjAV1QJ5oIMdUX9Ri_a-16" value="一件帮助用户端(helper)" style="rounded=1;whiteSpace=wrap;html=1;fillColor=#0050ef;fontColor=#ffffff;strokeColor=#001DBC;" vertex="1" parent="1hjAV1QJ5oIMdUX9Ri_a-8">
          <mxGeometry x="130" y="87.5" width="110" height="50" as="geometry" />
        </mxCell>
        <mxCell id="1hjAV1QJ5oIMdUX9Ri_a-17" value="一件帮助用户端(helper)" style="rounded=1;whiteSpace=wrap;html=1;fillColor=#0050ef;fontColor=#ffffff;strokeColor=#001DBC;" vertex="1" parent="1hjAV1QJ5oIMdUX9Ri_a-8">
          <mxGeometry x="250" y="87.5" width="110" height="50" as="geometry" />
        </mxCell>
        <mxCell id="1hjAV1QJ5oIMdUX9Ri_a-18" value="用户中心(usercenter)" style="rounded=1;whiteSpace=wrap;html=1;fillColor=#e51400;fontColor=#ffffff;strokeColor=#B20000;" vertex="1" parent="1hjAV1QJ5oIMdUX9Ri_a-8">
          <mxGeometry x="370" y="15" width="110" height="50" as="geometry" />
        </mxCell>
        <mxCell id="1hjAV1QJ5oIMdUX9Ri_a-19" value="设备使用(duse)" style="rounded=1;whiteSpace=wrap;html=1;fillColor=#0050ef;fontColor=#ffffff;strokeColor=#001DBC;" vertex="1" parent="1hjAV1QJ5oIMdUX9Ri_a-8">
          <mxGeometry x="370" y="87.5" width="110" height="50" as="geometry" />
        </mxCell>
        <mxCell id="1hjAV1QJ5oIMdUX9Ri_a-23" value="扩展字段(cfield)" style="rounded=1;whiteSpace=wrap;html=1;fillColor=#e51400;fontColor=#ffffff;strokeColor=#B20000;" vertex="1" parent="1hjAV1QJ5oIMdUX9Ri_a-8">
          <mxGeometry x="10" y="87.5" width="110" height="50" as="geometry" />
        </mxCell>
        <mxCell id="1hjAV1QJ5oIMdUX9Ri_a-24" value="nfs文件服务(fileservice)" style="rounded=1;whiteSpace=wrap;html=1;fillColor=#0050ef;fontColor=#ffffff;strokeColor=#001DBC;" vertex="1" parent="1hjAV1QJ5oIMdUX9Ri_a-8">
          <mxGeometry x="130" y="155" width="110" height="50" as="geometry" />
        </mxCell>
        <mxCell id="1hjAV1QJ5oIMdUX9Ri_a-25" value="&lt;div style=&quot;&quot;&gt;&lt;span style=&quot;background-color: initial;&quot;&gt;分布式文件服务(filemgr)&lt;/span&gt;&lt;/div&gt;" style="rounded=1;whiteSpace=wrap;html=1;fillColor=#0050ef;fontColor=#ffffff;strokeColor=#001DBC;align=center;" vertex="1" parent="1hjAV1QJ5oIMdUX9Ri_a-8">
          <mxGeometry x="250" y="155" width="110" height="50" as="geometry" />
        </mxCell>
        <mxCell id="1hjAV1QJ5oIMdUX9Ri_a-26" value="&lt;font color=&quot;#0000cc&quot;&gt;数据同步(datasync)&lt;/font&gt;" style="rounded=1;whiteSpace=wrap;html=1;fillColor=#f0a30a;fontColor=#000000;strokeColor=#BD7000;" vertex="1" parent="1hjAV1QJ5oIMdUX9Ri_a-8">
          <mxGeometry x="370" y="155" width="110" height="50" as="geometry" />
        </mxCell>
        <mxCell id="1hjAV1QJ5oIMdUX9Ri_a-27" value="查询服务(serviceapi)" style="rounded=1;whiteSpace=wrap;html=1;fillColor=#0050ef;fontColor=#ffffff;strokeColor=#001DBC;" vertex="1" parent="1hjAV1QJ5oIMdUX9Ri_a-8">
          <mxGeometry x="10" y="224.5" width="110" height="50" as="geometry" />
        </mxCell>
        <mxCell id="1hjAV1QJ5oIMdUX9Ri_a-28" value="报表(reports)" style="rounded=1;whiteSpace=wrap;html=1;fillColor=#0050ef;fontColor=#ffffff;strokeColor=#001DBC;" vertex="1" parent="1hjAV1QJ5oIMdUX9Ri_a-8">
          <mxGeometry x="130" y="225" width="110" height="50" as="geometry" />
        </mxCell>
        <mxCell id="1hjAV1QJ5oIMdUX9Ri_a-29" value="审计服务(audit)" style="rounded=1;whiteSpace=wrap;html=1;fillColor=#0050ef;fontColor=#ffffff;strokeColor=#001DBC;" vertex="1" parent="1hjAV1QJ5oIMdUX9Ri_a-8">
          <mxGeometry x="250" y="225" width="110" height="50" as="geometry" />
        </mxCell>
        <mxCell id="1hjAV1QJ5oIMdUX9Ri_a-30" value="埋点服务(eventtracking)" style="rounded=1;whiteSpace=wrap;html=1;fillColor=#0050ef;fontColor=#ffffff;strokeColor=#001DBC;" vertex="1" parent="1hjAV1QJ5oIMdUX9Ri_a-8">
          <mxGeometry x="370" y="225" width="110" height="50" as="geometry" />
        </mxCell>
        <mxCell id="1hjAV1QJ5oIMdUX9Ri_a-31" value="移动端单点登录(cas)" style="rounded=1;whiteSpace=wrap;html=1;fillColor=#eeeeee;strokeColor=#36393d;" vertex="1" parent="1hjAV1QJ5oIMdUX9Ri_a-8">
          <mxGeometry x="130" y="295" width="110" height="50" as="geometry" />
        </mxCell>
        <mxCell id="1hjAV1QJ5oIMdUX9Ri_a-32" value="移动门户(mobileportal)" style="rounded=1;whiteSpace=wrap;html=1;fillColor=#eeeeee;strokeColor=#36393d;" vertex="1" parent="1hjAV1QJ5oIMdUX9Ri_a-8">
          <mxGeometry x="250" y="295" width="110" height="50" as="geometry" />
        </mxCell>
        <mxCell id="1hjAV1QJ5oIMdUX9Ri_a-33" value="移动巡检(deviceops)" style="rounded=1;whiteSpace=wrap;html=1;fillColor=#0050ef;fontColor=#ffffff;strokeColor=#001DBC;" vertex="1" parent="1hjAV1QJ5oIMdUX9Ri_a-8">
          <mxGeometry x="250" y="365" width="110" height="50" as="geometry" />
        </mxCell>
        <mxCell id="1hjAV1QJ5oIMdUX9Ri_a-34" value="移动扫码(devicescan)" style="rounded=1;whiteSpace=wrap;html=1;fillColor=#0050ef;fontColor=#ffffff;strokeColor=#001DBC;" vertex="1" parent="1hjAV1QJ5oIMdUX9Ri_a-8">
          <mxGeometry x="370" y="295" width="110" height="50" as="geometry" />
        </mxCell>
        <mxCell id="1hjAV1QJ5oIMdUX9Ri_a-35" value="移动工单(workorder)" style="rounded=1;whiteSpace=wrap;html=1;fillColor=#0050ef;fontColor=#ffffff;strokeColor=#001DBC;" vertex="1" parent="1hjAV1QJ5oIMdUX9Ri_a-8">
          <mxGeometry x="10" y="365" width="110" height="50" as="geometry" />
        </mxCell>
        <mxCell id="1hjAV1QJ5oIMdUX9Ri_a-36" value="移动报表(mobilereport)" style="rounded=1;whiteSpace=wrap;html=1;fillColor=#0050ef;fontColor=#ffffff;strokeColor=#001DBC;" vertex="1" parent="1hjAV1QJ5oIMdUX9Ri_a-8">
          <mxGeometry x="130" y="365" width="110" height="50" as="geometry" />
        </mxCell>
        <mxCell id="1hjAV1QJ5oIMdUX9Ri_a-68" value="&lt;font color=&quot;#ff0000&quot;&gt;中控台(centerconsole)&lt;/font&gt;" style="rounded=1;whiteSpace=wrap;html=1;fillColor=#008a00;fontColor=#ffffff;strokeColor=#005700;" vertex="1" parent="1hjAV1QJ5oIMdUX9Ri_a-8">
          <mxGeometry x="250" y="15" width="110" height="50" as="geometry" />
        </mxCell>
        <mxCell id="1hjAV1QJ5oIMdUX9Ri_a-69" value="&lt;font color=&quot;#0000cc&quot;&gt;呼叫中心API(callcenter-api)&lt;/font&gt;" style="rounded=1;whiteSpace=wrap;html=1;fillColor=#008a00;fontColor=#ffffff;strokeColor=#005700;" vertex="1" parent="1hjAV1QJ5oIMdUX9Ri_a-8">
          <mxGeometry x="370" y="365" width="110" height="50" as="geometry" />
        </mxCell>
        <mxCell id="1hjAV1QJ5oIMdUX9Ri_a-9" value="&lt;span style=&quot;font-size: 14px;&quot;&gt;&lt;b&gt;自研业务服务&lt;/b&gt;&lt;/span&gt;" style="text;html=1;align=center;verticalAlign=middle;resizable=0;points=[];autosize=1;strokeColor=none;fillColor=none;" vertex="1" parent="1">
          <mxGeometry x="30" y="410" width="110" height="30" as="geometry" />
        </mxCell>
        <mxCell id="1hjAV1QJ5oIMdUX9Ri_a-11" style="edgeStyle=orthogonalEdgeStyle;rounded=0;orthogonalLoop=1;jettySize=auto;html=1;entryX=0.5;entryY=0;entryDx=0;entryDy=0;" edge="1" parent="1" source="1hjAV1QJ5oIMdUX9Ri_a-10" target="1hjAV1QJ5oIMdUX9Ri_a-2">
          <mxGeometry relative="1" as="geometry" />
        </mxCell>
        <mxCell id="1hjAV1QJ5oIMdUX9Ri_a-10" value="&lt;span style=&quot;font-size: 14px;&quot;&gt;&lt;b&gt;中间件&lt;/b&gt;&lt;/span&gt;" style="text;html=1;align=center;verticalAlign=middle;resizable=0;points=[];autosize=1;strokeColor=none;fillColor=none;" vertex="1" parent="1">
          <mxGeometry x="692.5" y="240" width="70" height="30" as="geometry" />
        </mxCell>
        <mxCell id="1hjAV1QJ5oIMdUX9Ri_a-37" value="&lt;h1&gt;说明&lt;/h1&gt;&lt;div&gt;&lt;b&gt;&lt;font color=&quot;#ff0000&quot;&gt;红色&lt;/font&gt;&lt;/b&gt;代表核心应用；&lt;/div&gt;&lt;div&gt;&lt;font color=&quot;#0000cc&quot;&gt;&lt;b&gt;蓝色&lt;/b&gt;&lt;/font&gt;代表可拆卸应用；&lt;/div&gt;&lt;div&gt;&lt;b style=&quot;&quot;&gt;&lt;font color=&quot;#b3b3b3&quot;&gt;灰色&lt;/font&gt;&lt;/b&gt;代表可删除应用；&lt;/div&gt;&lt;div&gt;&lt;font color=&quot;#00cc00&quot;&gt;&lt;b&gt;绿色&lt;/b&gt;&lt;/font&gt;代表新增应用；&lt;/div&gt;&lt;div&gt;&lt;font color=&quot;#ff8000&quot;&gt;&lt;b&gt;黄色&lt;/b&gt;&lt;/font&gt;代表要大改；&lt;/div&gt;" style="text;html=1;strokeColor=none;fillColor=none;spacing=5;spacingTop=-20;whiteSpace=wrap;overflow=hidden;rounded=0;" vertex="1" parent="1">
          <mxGeometry x="140" y="-70" width="190" height="140" as="geometry" />
        </mxCell>
        <mxCell id="1hjAV1QJ5oIMdUX9Ri_a-38" value="&lt;span style=&quot;font-size: 14px;&quot;&gt;&lt;b&gt;三方服务&lt;/b&gt;&lt;/span&gt;" style="text;html=1;align=center;verticalAlign=middle;resizable=0;points=[];autosize=1;strokeColor=none;fillColor=none;" vertex="1" parent="1">
          <mxGeometry x="50" y="810" width="80" height="30" as="geometry" />
        </mxCell>
        <mxCell id="1hjAV1QJ5oIMdUX9Ri_a-62" value="" style="swimlane;startSize=0;" vertex="1" parent="1">
          <mxGeometry x="140" y="800" width="490" height="200" as="geometry" />
        </mxCell>
        <mxCell id="1hjAV1QJ5oIMdUX9Ri_a-64" value="培训系统(train)" style="rounded=1;whiteSpace=wrap;html=1;fillColor=#0050ef;fontColor=#ffffff;strokeColor=#001DBC;" vertex="1" parent="1hjAV1QJ5oIMdUX9Ri_a-62">
          <mxGeometry x="10" y="20" width="110" height="50" as="geometry" />
        </mxCell>
        <mxCell id="1hjAV1QJ5oIMdUX9Ri_a-65" value="文件预览(kkfile)" style="rounded=1;whiteSpace=wrap;html=1;fillColor=#0050ef;fontColor=#ffffff;strokeColor=#001DBC;" vertex="1" parent="1hjAV1QJ5oIMdUX9Ri_a-62">
          <mxGeometry x="130" y="20" width="110" height="50" as="geometry" />
        </mxCell>
        <mxCell id="1hjAV1QJ5oIMdUX9Ri_a-66" value="呼叫中心(cube)" style="rounded=1;whiteSpace=wrap;html=1;fillColor=#0050ef;fontColor=#ffffff;strokeColor=#001DBC;" vertex="1" parent="1hjAV1QJ5oIMdUX9Ri_a-62">
          <mxGeometry x="250" y="20" width="110" height="50" as="geometry" />
        </mxCell>
        <mxCell id="1hjAV1QJ5oIMdUX9Ri_a-67" value="客服机器人(robot)" style="rounded=1;whiteSpace=wrap;html=1;fillColor=#0050ef;fontColor=#ffffff;strokeColor=#001DBC;" vertex="1" parent="1hjAV1QJ5oIMdUX9Ri_a-62">
          <mxGeometry x="370" y="20" width="110" height="50" as="geometry" />
        </mxCell>
      </root>
    </mxGraphModel>
  </diagram>
</mxfile>
